<mxfile host="app.diagrams.net" modified="2024-06-17T09:20:13.856Z" agent="Mozilla/5.0 (X11; Linux x86_64) AppleWebKit/537.36 (KHTML, like Gecko) Chrome/126.0.0.0 Safari/537.36" etag="DYVt2tkbJnPqvSo22cmB" version="24.5.4" type="device">
  <diagram name="Page-1" id="WhUl5oQs7Qrf4h8sA8Bf">
    <mxGraphModel dx="859" dy="581" grid="1" gridSize="10" guides="1" tooltips="1" connect="1" arrows="1" fold="1" page="1" pageScale="1" pageWidth="850" pageHeight="1100" math="0" shadow="0">
      <root>
        <mxCell id="0" />
        <mxCell id="1" parent="0" />
        <mxCell id="d4Mi-WWw6-5imTZ_m3b6-1" value="&lt;b&gt;DetectorNode&lt;br&gt;&lt;/b&gt;&lt;br&gt;&lt;br&gt;&lt;br&gt;&lt;br&gt;&lt;br&gt;&lt;br&gt;&lt;br&gt;&lt;br&gt;&lt;div&gt;&lt;br&gt;&lt;/div&gt;" style="rounded=1;whiteSpace=wrap;html=1;" vertex="1" parent="1">
          <mxGeometry x="60" y="90" width="260" height="190" as="geometry" />
        </mxCell>
        <mxCell id="d4Mi-WWw6-5imTZ_m3b6-2" value="/odometry/global" style="rounded=1;whiteSpace=wrap;html=1;" vertex="1" parent="1">
          <mxGeometry x="80" y="170" width="100" height="30" as="geometry" />
        </mxCell>
        <mxCell id="d4Mi-WWw6-5imTZ_m3b6-3" value="Subscriber" style="text;html=1;align=center;verticalAlign=middle;whiteSpace=wrap;rounded=0;" vertex="1" parent="1">
          <mxGeometry x="105" y="140" width="60" height="30" as="geometry" />
        </mxCell>
        <mxCell id="d4Mi-WWw6-5imTZ_m3b6-5" value="/odometry/local" style="rounded=1;whiteSpace=wrap;html=1;" vertex="1" parent="1">
          <mxGeometry x="200" y="170" width="100" height="30" as="geometry" />
        </mxCell>
        <mxCell id="d4Mi-WWw6-5imTZ_m3b6-6" value="Subscriber" style="text;html=1;align=center;verticalAlign=middle;whiteSpace=wrap;rounded=0;" vertex="1" parent="1">
          <mxGeometry x="220" y="140" width="60" height="30" as="geometry" />
        </mxCell>
        <mxCell id="d4Mi-WWw6-5imTZ_m3b6-7" value="/alerts" style="rounded=1;whiteSpace=wrap;html=1;" vertex="1" parent="1">
          <mxGeometry x="165" y="240" width="50" height="30" as="geometry" />
        </mxCell>
        <mxCell id="d4Mi-WWw6-5imTZ_m3b6-8" value="Publisher" style="text;html=1;align=center;verticalAlign=middle;whiteSpace=wrap;rounded=0;" vertex="1" parent="1">
          <mxGeometry x="160" y="210" width="60" height="30" as="geometry" />
        </mxCell>
        <mxCell id="d4Mi-WWw6-5imTZ_m3b6-9" value="&lt;b&gt;Node Architecture&lt;/b&gt;" style="text;html=1;align=center;verticalAlign=middle;whiteSpace=wrap;rounded=0;" vertex="1" parent="1">
          <mxGeometry x="155" y="60" width="60" height="20" as="geometry" />
        </mxCell>
        <mxCell id="d4Mi-WWw6-5imTZ_m3b6-17" value="" style="edgeStyle=orthogonalEdgeStyle;rounded=0;orthogonalLoop=1;jettySize=auto;html=1;" edge="1" parent="1" source="d4Mi-WWw6-5imTZ_m3b6-11" target="d4Mi-WWw6-5imTZ_m3b6-16">
          <mxGeometry relative="1" as="geometry" />
        </mxCell>
        <mxCell id="d4Mi-WWw6-5imTZ_m3b6-20" value="yes" style="edgeLabel;html=1;align=center;verticalAlign=middle;resizable=0;points=[];" vertex="1" connectable="0" parent="d4Mi-WWw6-5imTZ_m3b6-17">
          <mxGeometry x="-0.3125" y="-1" relative="1" as="geometry">
            <mxPoint as="offset" />
          </mxGeometry>
        </mxCell>
        <mxCell id="d4Mi-WWw6-5imTZ_m3b6-19" value="" style="edgeStyle=orthogonalEdgeStyle;rounded=0;orthogonalLoop=1;jettySize=auto;html=1;entryX=0;entryY=0.5;entryDx=0;entryDy=0;" edge="1" parent="1" source="d4Mi-WWw6-5imTZ_m3b6-11" target="d4Mi-WWw6-5imTZ_m3b6-22">
          <mxGeometry relative="1" as="geometry">
            <mxPoint x="550" y="185" as="targetPoint" />
          </mxGeometry>
        </mxCell>
        <mxCell id="d4Mi-WWw6-5imTZ_m3b6-21" value="no" style="edgeLabel;html=1;align=center;verticalAlign=middle;resizable=0;points=[];" vertex="1" connectable="0" parent="d4Mi-WWw6-5imTZ_m3b6-19">
          <mxGeometry x="-0.326" y="1" relative="1" as="geometry">
            <mxPoint as="offset" />
          </mxGeometry>
        </mxCell>
        <mxCell id="d4Mi-WWw6-5imTZ_m3b6-11" value="is previous pose None?" style="rhombus;whiteSpace=wrap;html=1;" vertex="1" parent="1">
          <mxGeometry x="391.5" y="140" width="112" height="90" as="geometry" />
        </mxCell>
        <mxCell id="d4Mi-WWw6-5imTZ_m3b6-16" value="store new pose as initial pose" style="whiteSpace=wrap;html=1;" vertex="1" parent="1">
          <mxGeometry x="403.75" y="280" width="87.5" height="40" as="geometry" />
        </mxCell>
        <mxCell id="d4Mi-WWw6-5imTZ_m3b6-24" value="" style="edgeStyle=orthogonalEdgeStyle;rounded=0;orthogonalLoop=1;jettySize=auto;html=1;" edge="1" parent="1" source="d4Mi-WWw6-5imTZ_m3b6-22" target="d4Mi-WWw6-5imTZ_m3b6-23">
          <mxGeometry relative="1" as="geometry" />
        </mxCell>
        <mxCell id="d4Mi-WWw6-5imTZ_m3b6-25" value="no" style="edgeLabel;html=1;align=center;verticalAlign=middle;resizable=0;points=[];" vertex="1" connectable="0" parent="d4Mi-WWw6-5imTZ_m3b6-24">
          <mxGeometry x="-0.3154" y="2" relative="1" as="geometry">
            <mxPoint as="offset" />
          </mxGeometry>
        </mxCell>
        <mxCell id="d4Mi-WWw6-5imTZ_m3b6-30" value="" style="edgeStyle=orthogonalEdgeStyle;rounded=0;orthogonalLoop=1;jettySize=auto;html=1;" edge="1" parent="1" source="d4Mi-WWw6-5imTZ_m3b6-22" target="d4Mi-WWw6-5imTZ_m3b6-29">
          <mxGeometry relative="1" as="geometry" />
        </mxCell>
        <mxCell id="d4Mi-WWw6-5imTZ_m3b6-31" value="yes" style="edgeLabel;html=1;align=center;verticalAlign=middle;resizable=0;points=[];" vertex="1" connectable="0" parent="d4Mi-WWw6-5imTZ_m3b6-30">
          <mxGeometry x="-0.3703" y="1" relative="1" as="geometry">
            <mxPoint as="offset" />
          </mxGeometry>
        </mxCell>
        <mxCell id="d4Mi-WWw6-5imTZ_m3b6-22" value="jump detected?" style="rhombus;whiteSpace=wrap;html=1;" vertex="1" parent="1">
          <mxGeometry x="550" y="140" width="110" height="90" as="geometry" />
        </mxCell>
        <mxCell id="d4Mi-WWw6-5imTZ_m3b6-23" value="update previous pose" style="whiteSpace=wrap;html=1;" vertex="1" parent="1">
          <mxGeometry x="710" y="162.5" width="70" height="45" as="geometry" />
        </mxCell>
        <mxCell id="d4Mi-WWw6-5imTZ_m3b6-26" value="&lt;b&gt;Odometry callbacks&lt;/b&gt;" style="text;html=1;align=center;verticalAlign=middle;whiteSpace=wrap;rounded=0;" vertex="1" parent="1">
          <mxGeometry x="418" y="30" width="72" height="30" as="geometry" />
        </mxCell>
        <mxCell id="d4Mi-WWw6-5imTZ_m3b6-28" style="edgeStyle=orthogonalEdgeStyle;rounded=0;orthogonalLoop=1;jettySize=auto;html=1;entryX=0.5;entryY=0;entryDx=0;entryDy=0;" edge="1" parent="1" source="d4Mi-WWw6-5imTZ_m3b6-27" target="d4Mi-WWw6-5imTZ_m3b6-11">
          <mxGeometry relative="1" as="geometry" />
        </mxCell>
        <mxCell id="d4Mi-WWw6-5imTZ_m3b6-27" value="new pose received" style="rounded=0;whiteSpace=wrap;html=1;" vertex="1" parent="1">
          <mxGeometry x="401.5" y="70" width="92" height="40" as="geometry" />
        </mxCell>
        <mxCell id="d4Mi-WWw6-5imTZ_m3b6-32" style="edgeStyle=orthogonalEdgeStyle;rounded=0;orthogonalLoop=1;jettySize=auto;html=1;entryX=0.5;entryY=1;entryDx=0;entryDy=0;" edge="1" parent="1" source="d4Mi-WWw6-5imTZ_m3b6-29" target="d4Mi-WWw6-5imTZ_m3b6-23">
          <mxGeometry relative="1" as="geometry" />
        </mxCell>
        <mxCell id="d4Mi-WWw6-5imTZ_m3b6-29" value="publish warning message" style="whiteSpace=wrap;html=1;" vertex="1" parent="1">
          <mxGeometry x="560" y="280" width="90" height="40" as="geometry" />
        </mxCell>
      </root>
    </mxGraphModel>
  </diagram>
</mxfile>
